<?xml version="1.0" encoding="utf-8"?>
<!-- Generator: Adobe Illustrator 16.2.0, SVG Export Plug-In . SVG Version: 6.00 Build 0)  -->
<!DOCTYPE svg PUBLIC "-//W3C//DTD SVG 1.1//EN" "http://www.w3.org/Graphics/SVG/1.1/DTD/svg11.dtd">
<svg version="1.1" id="Capa_1" xmlns="http://www.w3.org/2000/svg" xmlns:xlink="http://www.w3.org/1999/xlink" x="0px" y="0px"
	 width="32px" height="32px" viewBox="0 0 32 32" enable-background="new 0 0 32 32" xml:space="preserve">
<g id="Search">
	<path fill="#FFFFFF" d="M31.217,27.436l-6.951-6.952c-0.037-0.037-0.081-0.063-0.119-0.097c1.367-2.076,2.166-4.56,2.166-7.23
		C26.313,5.89,20.422,0,13.156,0C5.89,0,0,5.89,0,13.156c0,7.266,5.89,13.156,13.156,13.156c2.671,0,5.154-0.799,7.229-2.166
		c0.034,0.038,0.06,0.082,0.097,0.118l6.953,6.952c1.043,1.044,2.736,1.044,3.781,0C32.261,30.172,32.261,28.479,31.217,27.436z
		 M13.156,21.752c-4.747,0-8.596-3.849-8.596-8.596s3.849-8.596,8.596-8.596s8.596,3.849,8.596,8.596S17.903,21.752,13.156,21.752z"
		/>
</g>
</svg>
